M48
;DRILL file {KiCad 4.0.2+e4-6225~38~ubuntu14.04.1-stable} date Thu 16 Jun 2016 08:22:15 PM ADT
;FORMAT={-:-/ absolute / inch / decimal}
FMAT,2
INCH,TZ
T1C0.016
T2C0.030
T3C0.039
T4C0.039
T5C0.040
T6C0.051
T7C0.087
T8C0.091
T9C0.118
%
G90
G05
M72
T1
X5.2165Y-3.8386
X5.5512Y-3.9173
X5.6496Y-3.9567
X5.7677Y-4.2126
X5.8661Y-3.9567
T2
X5.2559Y-3.5827
X5.2559Y-3.8976
X5.4724Y-3.7008
X5.7874Y-3.6811
X5.8209Y-4.1398
X5.8661Y-3.878
T3
X5.1969Y-4.5276
X5.2953Y-4.5276
X5.3937Y-4.5276
X5.7677Y-4.5276
X5.8661Y-4.5276
X5.9646Y-4.5276
T4
X5.7465Y-3.1398
X5.8465Y-3.1398
X5.9465Y-3.1398
X5.9646Y-3.2874
X6.2598Y-3.7988
T5
X6.2205Y-3.9535
X6.2205Y-4.0535
X6.2205Y-4.1535
T6
X6.4961Y-3.6795
X6.4961Y-3.8795
X6.4961Y-4.2307
X6.4961Y-4.4307
T7
X5.0945Y-4.3976
X5.4961Y-4.3976
X5.6654Y-4.3976
X6.0669Y-4.3976
T8
X5.3268Y-2.9921
X6.3268Y-2.9921
T9
X4.8622Y-2.9921
X4.8622Y-4.5472
X6.7913Y-2.9921
X6.7913Y-4.5472
T0
M30
