G04 #@! TF.FileFunction,Copper,L2,Bot,Signal*
%FSLAX46Y46*%
G04 Gerber Fmt 4.6, Leading zero omitted, Abs format (unit mm)*
G04 Created by KiCad (PCBNEW 4.0.2+e4-6225~38~ubuntu14.04.1-stable) date Thu 16 Jun 2016 08:22:09 PM ADT*
%MOMM*%
G01*
G04 APERTURE LIST*
%ADD10C,0.100000*%
%ADD11R,1.250000X1.500000*%
%ADD12R,1.500000X1.250000*%
%ADD13O,1.501140X2.499360*%
%ADD14R,2.032000X2.032000*%
%ADD15O,2.032000X2.032000*%
%ADD16R,2.032000X1.727200*%
%ADD17O,2.032000X1.727200*%
%ADD18C,2.000000*%
%ADD19C,1.998980*%
%ADD20C,1.143000*%
%ADD21C,0.600000*%
%ADD22C,0.609600*%
%ADD23C,0.250000*%
%ADD24C,0.254000*%
G04 APERTURE END LIST*
D10*
D11*
X138000000Y-96250000D03*
X138000000Y-98750000D03*
D12*
X161750000Y-101500000D03*
X164250000Y-101500000D03*
X151750000Y-94500000D03*
X154250000Y-94500000D03*
D13*
X148500000Y-79750000D03*
X145960000Y-79750000D03*
X151040000Y-79750000D03*
D14*
X165000000Y-112540000D03*
D15*
X165000000Y-107460000D03*
D16*
X158000000Y-105500000D03*
D17*
X158000000Y-102960000D03*
X158000000Y-100420000D03*
D14*
X165000000Y-98540000D03*
D15*
X165000000Y-93460000D03*
D18*
X132000000Y-115000000D03*
X134500000Y-115000000D03*
X137000000Y-115000000D03*
X146500000Y-115000000D03*
X149000000Y-115000000D03*
X151500000Y-115000000D03*
D19*
X151500000Y-83500000D03*
X159000000Y-96490381D03*
D20*
X149000000Y-98500000D03*
X139000000Y-94000000D03*
X147850000Y-105150000D03*
X133500000Y-99000000D03*
X133500000Y-91000000D03*
X147000000Y-93500000D03*
D21*
X146500000Y-107000000D03*
X149000000Y-100500000D03*
X143500000Y-100500000D03*
X141000000Y-99500000D03*
X132500000Y-97500000D03*
D22*
X149000000Y-96000000D02*
X149000000Y-98500000D01*
X139000000Y-94000000D02*
X145500000Y-94000000D01*
X150250000Y-96000000D02*
X151750000Y-94500000D01*
X147500000Y-96000000D02*
X149000000Y-96000000D01*
X149000000Y-96000000D02*
X150250000Y-96000000D01*
X145500000Y-94000000D02*
X147500000Y-96000000D01*
X138000000Y-95000000D02*
X138000000Y-96250000D01*
X139000000Y-94000000D02*
X138000000Y-95000000D01*
X147900000Y-105100000D02*
X147900000Y-105000000D01*
X147850000Y-105150000D02*
X147900000Y-105100000D01*
X158000000Y-102960000D02*
X160290000Y-102960000D01*
X160290000Y-102960000D02*
X161750000Y-101500000D01*
X165000000Y-112540000D02*
X165000000Y-112500000D01*
X149000000Y-76000000D02*
X148500000Y-76500000D01*
X160000000Y-80500000D02*
X155500000Y-76000000D01*
X155500000Y-76000000D02*
X149000000Y-76000000D01*
X148500000Y-76500000D02*
X148500000Y-79750000D01*
X160000000Y-80500000D02*
X147000000Y-93500000D01*
X165000000Y-98540000D02*
X165000000Y-96500000D01*
X160000000Y-91500000D02*
X160000000Y-80500000D01*
X165000000Y-96500000D02*
X160000000Y-91500000D01*
D23*
X146500000Y-103000000D02*
X146500000Y-107000000D01*
X149000000Y-100500000D02*
X146500000Y-103000000D01*
X142000000Y-100500000D02*
X143500000Y-100500000D01*
X141000000Y-99500000D02*
X142000000Y-100500000D01*
X132000000Y-112500000D02*
X134500000Y-115000000D01*
X132000000Y-98000000D02*
X132000000Y-112500000D01*
X132500000Y-97500000D02*
X132000000Y-98000000D01*
D24*
G36*
X175290000Y-118290000D02*
X120710000Y-118290000D01*
X120710000Y-115922815D01*
X121364630Y-115922815D01*
X121688980Y-116707800D01*
X122289041Y-117308909D01*
X123073459Y-117634628D01*
X123922815Y-117635370D01*
X124707800Y-117311020D01*
X125308909Y-116710959D01*
X125634628Y-115926541D01*
X125635154Y-115323795D01*
X130364716Y-115323795D01*
X130613106Y-115924943D01*
X131072637Y-116385278D01*
X131673352Y-116634716D01*
X132323795Y-116635284D01*
X132924943Y-116386894D01*
X133250164Y-116062241D01*
X133572637Y-116385278D01*
X134173352Y-116634716D01*
X134823795Y-116635284D01*
X135424943Y-116386894D01*
X135659715Y-116152532D01*
X136027073Y-116152532D01*
X136125736Y-116419387D01*
X136735461Y-116645908D01*
X137385460Y-116621856D01*
X137874264Y-116419387D01*
X137972927Y-116152532D01*
X137000000Y-115179605D01*
X136027073Y-116152532D01*
X135659715Y-116152532D01*
X135841752Y-115970813D01*
X135847468Y-115972927D01*
X136820395Y-115000000D01*
X137179605Y-115000000D01*
X138152532Y-115972927D01*
X138419387Y-115874264D01*
X138623893Y-115323795D01*
X144864716Y-115323795D01*
X145113106Y-115924943D01*
X145572637Y-116385278D01*
X146173352Y-116634716D01*
X146823795Y-116635284D01*
X147424943Y-116386894D01*
X147659715Y-116152532D01*
X148027073Y-116152532D01*
X148125736Y-116419387D01*
X148735461Y-116645908D01*
X149385460Y-116621856D01*
X149874264Y-116419387D01*
X149972927Y-116152532D01*
X149000000Y-115179605D01*
X148027073Y-116152532D01*
X147659715Y-116152532D01*
X147841752Y-115970813D01*
X147847468Y-115972927D01*
X148820395Y-115000000D01*
X149179605Y-115000000D01*
X150152532Y-115972927D01*
X150158722Y-115970639D01*
X150572637Y-116385278D01*
X151173352Y-116634716D01*
X151823795Y-116635284D01*
X152424943Y-116386894D01*
X152885278Y-115927363D01*
X152887166Y-115922815D01*
X170364630Y-115922815D01*
X170688980Y-116707800D01*
X171289041Y-117308909D01*
X172073459Y-117634628D01*
X172922815Y-117635370D01*
X173707800Y-117311020D01*
X174308909Y-116710959D01*
X174634628Y-115926541D01*
X174635370Y-115077185D01*
X174311020Y-114292200D01*
X173710959Y-113691091D01*
X172926541Y-113365372D01*
X172077185Y-113364630D01*
X171292200Y-113688980D01*
X170691091Y-114289041D01*
X170365372Y-115073459D01*
X170364630Y-115922815D01*
X152887166Y-115922815D01*
X153134716Y-115326648D01*
X153135284Y-114676205D01*
X152886894Y-114075057D01*
X152427363Y-113614722D01*
X151826648Y-113365284D01*
X151176205Y-113364716D01*
X150575057Y-113613106D01*
X150158248Y-114029187D01*
X150152532Y-114027073D01*
X149179605Y-115000000D01*
X148820395Y-115000000D01*
X147847468Y-114027073D01*
X147841278Y-114029361D01*
X147659703Y-113847468D01*
X148027073Y-113847468D01*
X149000000Y-114820395D01*
X149972927Y-113847468D01*
X149874264Y-113580613D01*
X149264539Y-113354092D01*
X148614540Y-113378144D01*
X148125736Y-113580613D01*
X148027073Y-113847468D01*
X147659703Y-113847468D01*
X147427363Y-113614722D01*
X146826648Y-113365284D01*
X146176205Y-113364716D01*
X145575057Y-113613106D01*
X145114722Y-114072637D01*
X144865284Y-114673352D01*
X144864716Y-115323795D01*
X138623893Y-115323795D01*
X138645908Y-115264539D01*
X138621856Y-114614540D01*
X138419387Y-114125736D01*
X138152532Y-114027073D01*
X137179605Y-115000000D01*
X136820395Y-115000000D01*
X135847468Y-114027073D01*
X135841278Y-114029361D01*
X135659703Y-113847468D01*
X136027073Y-113847468D01*
X137000000Y-114820395D01*
X137972927Y-113847468D01*
X137874264Y-113580613D01*
X137264539Y-113354092D01*
X136614540Y-113378144D01*
X136125736Y-113580613D01*
X136027073Y-113847468D01*
X135659703Y-113847468D01*
X135427363Y-113614722D01*
X134826648Y-113365284D01*
X134176205Y-113364716D01*
X134008721Y-113433919D01*
X132760000Y-112185198D01*
X132760000Y-112043599D01*
X137864699Y-112043599D01*
X138128281Y-112681515D01*
X138615918Y-113170004D01*
X139253373Y-113434699D01*
X139943599Y-113435301D01*
X140581515Y-113171719D01*
X141070004Y-112684082D01*
X141334699Y-112046627D01*
X141334701Y-112043599D01*
X142164699Y-112043599D01*
X142428281Y-112681515D01*
X142915918Y-113170004D01*
X143553373Y-113434699D01*
X144243599Y-113435301D01*
X144881515Y-113171719D01*
X145370004Y-112684082D01*
X145634699Y-112046627D01*
X145634701Y-112043599D01*
X152364699Y-112043599D01*
X152628281Y-112681515D01*
X153115918Y-113170004D01*
X153753373Y-113434699D01*
X154443599Y-113435301D01*
X155081515Y-113171719D01*
X155570004Y-112684082D01*
X155834699Y-112046627D01*
X155835154Y-111524000D01*
X163336560Y-111524000D01*
X163336560Y-113556000D01*
X163380838Y-113791317D01*
X163519910Y-114007441D01*
X163732110Y-114152431D01*
X163984000Y-114203440D01*
X166016000Y-114203440D01*
X166251317Y-114159162D01*
X166467441Y-114020090D01*
X166612431Y-113807890D01*
X166663440Y-113556000D01*
X166663440Y-111524000D01*
X166619162Y-111288683D01*
X166480090Y-111072559D01*
X166267890Y-110927569D01*
X166016000Y-110876560D01*
X163984000Y-110876560D01*
X163748683Y-110920838D01*
X163532559Y-111059910D01*
X163387569Y-111272110D01*
X163336560Y-111524000D01*
X155835154Y-111524000D01*
X155835301Y-111356401D01*
X155571719Y-110718485D01*
X155084082Y-110229996D01*
X154446627Y-109965301D01*
X153756401Y-109964699D01*
X153118485Y-110228281D01*
X152629996Y-110715918D01*
X152365301Y-111353373D01*
X152364699Y-112043599D01*
X145634701Y-112043599D01*
X145635301Y-111356401D01*
X145371719Y-110718485D01*
X144884082Y-110229996D01*
X144246627Y-109965301D01*
X143556401Y-109964699D01*
X142918485Y-110228281D01*
X142429996Y-110715918D01*
X142165301Y-111353373D01*
X142164699Y-112043599D01*
X141334701Y-112043599D01*
X141335301Y-111356401D01*
X141071719Y-110718485D01*
X140584082Y-110229996D01*
X139946627Y-109965301D01*
X139256401Y-109964699D01*
X138618485Y-110228281D01*
X138129996Y-110715918D01*
X137865301Y-111353373D01*
X137864699Y-112043599D01*
X132760000Y-112043599D01*
X132760000Y-99035750D01*
X136740000Y-99035750D01*
X136740000Y-99626309D01*
X136836673Y-99859698D01*
X137015301Y-100038327D01*
X137248690Y-100135000D01*
X137714250Y-100135000D01*
X137873000Y-99976250D01*
X137873000Y-98877000D01*
X138127000Y-98877000D01*
X138127000Y-99976250D01*
X138285750Y-100135000D01*
X138751310Y-100135000D01*
X138984699Y-100038327D01*
X139163327Y-99859698D01*
X139235620Y-99685167D01*
X140064838Y-99685167D01*
X140206883Y-100028943D01*
X140469673Y-100292192D01*
X140813201Y-100434838D01*
X140860077Y-100434879D01*
X141462599Y-101037401D01*
X141709161Y-101202148D01*
X142000000Y-101260000D01*
X142937537Y-101260000D01*
X142969673Y-101292192D01*
X143313201Y-101434838D01*
X143685167Y-101435162D01*
X144028943Y-101293117D01*
X144292192Y-101030327D01*
X144434838Y-100686799D01*
X144435162Y-100314833D01*
X144293117Y-99971057D01*
X144030327Y-99707808D01*
X143686799Y-99565162D01*
X143314833Y-99564838D01*
X142971057Y-99706883D01*
X142937882Y-99740000D01*
X142314802Y-99740000D01*
X141935122Y-99360320D01*
X141935162Y-99314833D01*
X141793117Y-98971057D01*
X141530327Y-98707808D01*
X141186799Y-98565162D01*
X140814833Y-98564838D01*
X140471057Y-98706883D01*
X140207808Y-98969673D01*
X140065162Y-99313201D01*
X140064838Y-99685167D01*
X139235620Y-99685167D01*
X139260000Y-99626309D01*
X139260000Y-99035750D01*
X139101250Y-98877000D01*
X138127000Y-98877000D01*
X137873000Y-98877000D01*
X136898750Y-98877000D01*
X136740000Y-99035750D01*
X132760000Y-99035750D01*
X132760000Y-98404242D01*
X133028943Y-98293117D01*
X133292192Y-98030327D01*
X133434838Y-97686799D01*
X133435162Y-97314833D01*
X133293117Y-96971057D01*
X133030327Y-96707808D01*
X132686799Y-96565162D01*
X132314833Y-96564838D01*
X131971057Y-96706883D01*
X131707808Y-96969673D01*
X131565162Y-97313201D01*
X131565121Y-97360077D01*
X131462599Y-97462599D01*
X131297852Y-97709161D01*
X131240000Y-98000000D01*
X131240000Y-112500000D01*
X131297852Y-112790839D01*
X131462599Y-113037401D01*
X131790013Y-113364815D01*
X131676205Y-113364716D01*
X131075057Y-113613106D01*
X130614722Y-114072637D01*
X130365284Y-114673352D01*
X130364716Y-115323795D01*
X125635154Y-115323795D01*
X125635370Y-115077185D01*
X125311020Y-114292200D01*
X124710959Y-113691091D01*
X123926541Y-113365372D01*
X123077185Y-113364630D01*
X122292200Y-113688980D01*
X121691091Y-114289041D01*
X121365372Y-115073459D01*
X121364630Y-115922815D01*
X120710000Y-115922815D01*
X120710000Y-112043599D01*
X127664699Y-112043599D01*
X127928281Y-112681515D01*
X128415918Y-113170004D01*
X129053373Y-113434699D01*
X129743599Y-113435301D01*
X130381515Y-113171719D01*
X130870004Y-112684082D01*
X131134699Y-112046627D01*
X131135301Y-111356401D01*
X130871719Y-110718485D01*
X130384082Y-110229996D01*
X129746627Y-109965301D01*
X129056401Y-109964699D01*
X128418485Y-110228281D01*
X127929996Y-110715918D01*
X127665301Y-111353373D01*
X127664699Y-112043599D01*
X120710000Y-112043599D01*
X120710000Y-95500000D01*
X136727560Y-95500000D01*
X136727560Y-97000000D01*
X136771838Y-97235317D01*
X136910910Y-97451441D01*
X136979006Y-97497969D01*
X136836673Y-97640302D01*
X136740000Y-97873691D01*
X136740000Y-98464250D01*
X136898750Y-98623000D01*
X137873000Y-98623000D01*
X137873000Y-98603000D01*
X138127000Y-98603000D01*
X138127000Y-98623000D01*
X139101250Y-98623000D01*
X139260000Y-98464250D01*
X139260000Y-97873691D01*
X139163327Y-97640302D01*
X139022090Y-97499064D01*
X139076441Y-97464090D01*
X139221431Y-97251890D01*
X139272440Y-97000000D01*
X139272440Y-95500000D01*
X139228162Y-95264683D01*
X139190830Y-95206667D01*
X139238935Y-95206709D01*
X139682535Y-95023418D01*
X139766299Y-94939800D01*
X145110722Y-94939800D01*
X146835461Y-96664539D01*
X147140354Y-96868262D01*
X147500000Y-96939800D01*
X148060200Y-96939800D01*
X148060200Y-97733399D01*
X147977775Y-97815680D01*
X147793710Y-98258959D01*
X147793291Y-98738935D01*
X147976582Y-99182535D01*
X148315680Y-99522225D01*
X148616079Y-99646961D01*
X148471057Y-99706883D01*
X148207808Y-99969673D01*
X148065162Y-100313201D01*
X148065121Y-100360077D01*
X145962599Y-102462599D01*
X145797852Y-102709161D01*
X145740000Y-103000000D01*
X145740000Y-106437537D01*
X145707808Y-106469673D01*
X145565162Y-106813201D01*
X145564838Y-107185167D01*
X145706883Y-107528943D01*
X145969673Y-107792192D01*
X146313201Y-107934838D01*
X146685167Y-107935162D01*
X146908347Y-107842946D01*
X163394017Y-107842946D01*
X163662812Y-108428379D01*
X164135182Y-108866385D01*
X164617056Y-109065975D01*
X164873000Y-108946836D01*
X164873000Y-107587000D01*
X165127000Y-107587000D01*
X165127000Y-108946836D01*
X165382944Y-109065975D01*
X165864818Y-108866385D01*
X166337188Y-108428379D01*
X166605983Y-107842946D01*
X166487367Y-107587000D01*
X165127000Y-107587000D01*
X164873000Y-107587000D01*
X163512633Y-107587000D01*
X163394017Y-107842946D01*
X146908347Y-107842946D01*
X147028943Y-107793117D01*
X147292192Y-107530327D01*
X147434838Y-107186799D01*
X147434933Y-107077054D01*
X163394017Y-107077054D01*
X163512633Y-107333000D01*
X164873000Y-107333000D01*
X164873000Y-105973164D01*
X165127000Y-105973164D01*
X165127000Y-107333000D01*
X166487367Y-107333000D01*
X166605983Y-107077054D01*
X166337188Y-106491621D01*
X165864818Y-106053615D01*
X165382944Y-105854025D01*
X165127000Y-105973164D01*
X164873000Y-105973164D01*
X164617056Y-105854025D01*
X164135182Y-106053615D01*
X163662812Y-106491621D01*
X163394017Y-107077054D01*
X147434933Y-107077054D01*
X147435162Y-106814833D01*
X147293117Y-106471057D01*
X147260000Y-106437882D01*
X147260000Y-103314802D01*
X149139680Y-101435122D01*
X149185167Y-101435162D01*
X149528943Y-101293117D01*
X149792192Y-101030327D01*
X149934838Y-100686799D01*
X149935070Y-100420000D01*
X156316655Y-100420000D01*
X156430729Y-100993489D01*
X156755585Y-101479670D01*
X157070366Y-101690000D01*
X156755585Y-101900330D01*
X156430729Y-102386511D01*
X156316655Y-102960000D01*
X156430729Y-103533489D01*
X156755585Y-104019670D01*
X156769913Y-104029243D01*
X156748683Y-104033238D01*
X156532559Y-104172310D01*
X156387569Y-104384510D01*
X156336560Y-104636400D01*
X156336560Y-106363600D01*
X156380838Y-106598917D01*
X156519910Y-106815041D01*
X156732110Y-106960031D01*
X156984000Y-107011040D01*
X159016000Y-107011040D01*
X159251317Y-106966762D01*
X159467441Y-106827690D01*
X159612431Y-106615490D01*
X159663440Y-106363600D01*
X159663440Y-104636400D01*
X159619162Y-104401083D01*
X159480090Y-104184959D01*
X159267890Y-104039969D01*
X159226561Y-104031600D01*
X159244415Y-104019670D01*
X159324510Y-103899800D01*
X160290000Y-103899800D01*
X160649646Y-103828262D01*
X160954539Y-103624539D01*
X161806638Y-102772440D01*
X162500000Y-102772440D01*
X162735317Y-102728162D01*
X162951441Y-102589090D01*
X162997969Y-102520994D01*
X163140302Y-102663327D01*
X163373691Y-102760000D01*
X163964250Y-102760000D01*
X164123000Y-102601250D01*
X164123000Y-101627000D01*
X164377000Y-101627000D01*
X164377000Y-102601250D01*
X164535750Y-102760000D01*
X165126309Y-102760000D01*
X165359698Y-102663327D01*
X165538327Y-102484699D01*
X165635000Y-102251310D01*
X165635000Y-101785750D01*
X165476250Y-101627000D01*
X164377000Y-101627000D01*
X164123000Y-101627000D01*
X164103000Y-101627000D01*
X164103000Y-101373000D01*
X164123000Y-101373000D01*
X164123000Y-100398750D01*
X164377000Y-100398750D01*
X164377000Y-101373000D01*
X165476250Y-101373000D01*
X165635000Y-101214250D01*
X165635000Y-100748690D01*
X165538327Y-100515301D01*
X165359698Y-100336673D01*
X165126309Y-100240000D01*
X164535750Y-100240000D01*
X164377000Y-100398750D01*
X164123000Y-100398750D01*
X163964250Y-100240000D01*
X163373691Y-100240000D01*
X163140302Y-100336673D01*
X162999064Y-100477910D01*
X162964090Y-100423559D01*
X162751890Y-100278569D01*
X162500000Y-100227560D01*
X161000000Y-100227560D01*
X160764683Y-100271838D01*
X160548559Y-100410910D01*
X160403569Y-100623110D01*
X160352560Y-100875000D01*
X160352560Y-101568362D01*
X159900722Y-102020200D01*
X159324510Y-102020200D01*
X159244415Y-101900330D01*
X158929634Y-101690000D01*
X159244415Y-101479670D01*
X159569271Y-100993489D01*
X159683345Y-100420000D01*
X159569271Y-99846511D01*
X159244415Y-99360330D01*
X158758234Y-99035474D01*
X158184745Y-98921400D01*
X157815255Y-98921400D01*
X157241766Y-99035474D01*
X156755585Y-99360330D01*
X156430729Y-99846511D01*
X156316655Y-100420000D01*
X149935070Y-100420000D01*
X149935162Y-100314833D01*
X149793117Y-99971057D01*
X149530327Y-99707808D01*
X149383665Y-99646908D01*
X149682535Y-99523418D01*
X150022225Y-99184320D01*
X150206290Y-98741041D01*
X150206709Y-98261065D01*
X150088288Y-97974462D01*
X158733822Y-97974462D01*
X158952613Y-98156219D01*
X159593708Y-98047549D01*
X160144417Y-97701815D01*
X160466352Y-97282261D01*
X160418341Y-97001904D01*
X159089803Y-96645924D01*
X158733822Y-97974462D01*
X150088288Y-97974462D01*
X150023418Y-97817465D01*
X149939800Y-97733701D01*
X149939800Y-96939800D01*
X150250000Y-96939800D01*
X150609646Y-96868262D01*
X150914539Y-96664539D01*
X151136084Y-96442994D01*
X157334162Y-96442994D01*
X157442832Y-97084089D01*
X157788566Y-97634798D01*
X158208120Y-97956733D01*
X158488477Y-97908722D01*
X158844457Y-96580184D01*
X158174159Y-96400578D01*
X159155543Y-96400578D01*
X160484081Y-96756559D01*
X160665838Y-96537768D01*
X160557168Y-95896673D01*
X160211434Y-95345964D01*
X159791880Y-95024029D01*
X159511523Y-95072040D01*
X159155543Y-96400578D01*
X158174159Y-96400578D01*
X157515919Y-96224203D01*
X157334162Y-96442994D01*
X151136084Y-96442994D01*
X151806638Y-95772440D01*
X152500000Y-95772440D01*
X152735317Y-95728162D01*
X152951441Y-95589090D01*
X152997969Y-95520994D01*
X153140302Y-95663327D01*
X153373691Y-95760000D01*
X153964250Y-95760000D01*
X154123000Y-95601250D01*
X154123000Y-94627000D01*
X154377000Y-94627000D01*
X154377000Y-95601250D01*
X154535750Y-95760000D01*
X155126309Y-95760000D01*
X155274780Y-95698501D01*
X157533648Y-95698501D01*
X157581659Y-95978858D01*
X158910197Y-96334838D01*
X159266178Y-95006300D01*
X159047387Y-94824543D01*
X158406292Y-94933213D01*
X157855583Y-95278947D01*
X157533648Y-95698501D01*
X155274780Y-95698501D01*
X155359698Y-95663327D01*
X155538327Y-95484699D01*
X155635000Y-95251310D01*
X155635000Y-94785750D01*
X155476250Y-94627000D01*
X154377000Y-94627000D01*
X154123000Y-94627000D01*
X154103000Y-94627000D01*
X154103000Y-94373000D01*
X154123000Y-94373000D01*
X154123000Y-93398750D01*
X154377000Y-93398750D01*
X154377000Y-94373000D01*
X155476250Y-94373000D01*
X155635000Y-94214250D01*
X155635000Y-93748690D01*
X155538327Y-93515301D01*
X155359698Y-93336673D01*
X155126309Y-93240000D01*
X154535750Y-93240000D01*
X154377000Y-93398750D01*
X154123000Y-93398750D01*
X153964250Y-93240000D01*
X153373691Y-93240000D01*
X153140302Y-93336673D01*
X152999064Y-93477910D01*
X152964090Y-93423559D01*
X152751890Y-93278569D01*
X152500000Y-93227560D01*
X151000000Y-93227560D01*
X150764683Y-93271838D01*
X150548559Y-93410910D01*
X150403569Y-93623110D01*
X150352560Y-93875000D01*
X150352560Y-94568362D01*
X149860722Y-95060200D01*
X147889278Y-95060200D01*
X147448993Y-94619915D01*
X147682535Y-94523418D01*
X148022225Y-94184320D01*
X148206290Y-93741041D01*
X148206393Y-93622685D01*
X159060200Y-82768878D01*
X159060200Y-91500000D01*
X159131738Y-91859646D01*
X159335461Y-92164539D01*
X164047482Y-96876560D01*
X163984000Y-96876560D01*
X163748683Y-96920838D01*
X163532559Y-97059910D01*
X163387569Y-97272110D01*
X163336560Y-97524000D01*
X163336560Y-99556000D01*
X163380838Y-99791317D01*
X163519910Y-100007441D01*
X163732110Y-100152431D01*
X163984000Y-100203440D01*
X166016000Y-100203440D01*
X166251317Y-100159162D01*
X166467441Y-100020090D01*
X166612431Y-99807890D01*
X166663440Y-99556000D01*
X166663440Y-97524000D01*
X166619162Y-97288683D01*
X166480090Y-97072559D01*
X166267890Y-96927569D01*
X166016000Y-96876560D01*
X165939800Y-96876560D01*
X165939800Y-96500000D01*
X165868262Y-96140354D01*
X165664539Y-95835461D01*
X164806752Y-94977674D01*
X164873000Y-94946836D01*
X164873000Y-93587000D01*
X165127000Y-93587000D01*
X165127000Y-94946836D01*
X165382944Y-95065975D01*
X165864818Y-94866385D01*
X166337188Y-94428379D01*
X166605983Y-93842946D01*
X166487367Y-93587000D01*
X165127000Y-93587000D01*
X164873000Y-93587000D01*
X163512633Y-93587000D01*
X163482056Y-93652978D01*
X162906132Y-93077054D01*
X163394017Y-93077054D01*
X163512633Y-93333000D01*
X164873000Y-93333000D01*
X164873000Y-91973164D01*
X165127000Y-91973164D01*
X165127000Y-93333000D01*
X166487367Y-93333000D01*
X166605983Y-93077054D01*
X166337188Y-92491621D01*
X165864818Y-92053615D01*
X165382944Y-91854025D01*
X165127000Y-91973164D01*
X164873000Y-91973164D01*
X164617056Y-91854025D01*
X164135182Y-92053615D01*
X163662812Y-92491621D01*
X163394017Y-93077054D01*
X162906132Y-93077054D01*
X160939800Y-91110722D01*
X160939800Y-80500000D01*
X160868262Y-80140354D01*
X160664539Y-79835461D01*
X157182579Y-76353501D01*
X158914691Y-76353501D01*
X159185868Y-77009800D01*
X159687559Y-77512367D01*
X160343384Y-77784689D01*
X161053501Y-77785309D01*
X161709800Y-77514132D01*
X162212367Y-77012441D01*
X162457200Y-76422815D01*
X170364630Y-76422815D01*
X170688980Y-77207800D01*
X171289041Y-77808909D01*
X172073459Y-78134628D01*
X172922815Y-78135370D01*
X173707800Y-77811020D01*
X174308909Y-77210959D01*
X174634628Y-76426541D01*
X174635370Y-75577185D01*
X174311020Y-74792200D01*
X173710959Y-74191091D01*
X172926541Y-73865372D01*
X172077185Y-73864630D01*
X171292200Y-74188980D01*
X170691091Y-74789041D01*
X170365372Y-75573459D01*
X170364630Y-76422815D01*
X162457200Y-76422815D01*
X162484689Y-76356616D01*
X162485309Y-75646499D01*
X162214132Y-74990200D01*
X161712441Y-74487633D01*
X161056616Y-74215311D01*
X160346499Y-74214691D01*
X159690200Y-74485868D01*
X159187633Y-74987559D01*
X158915311Y-75643384D01*
X158914691Y-76353501D01*
X157182579Y-76353501D01*
X156164539Y-75335461D01*
X155859646Y-75131738D01*
X155500000Y-75060200D01*
X149000000Y-75060200D01*
X148640354Y-75131738D01*
X148335461Y-75335461D01*
X147835461Y-75835461D01*
X147631738Y-76140354D01*
X147560200Y-76500000D01*
X147560200Y-78207530D01*
X147520254Y-78234221D01*
X147230000Y-78668616D01*
X146939746Y-78234221D01*
X146490235Y-77933867D01*
X145960000Y-77828397D01*
X145429765Y-77933867D01*
X144980254Y-78234221D01*
X144679900Y-78683732D01*
X144574430Y-79213967D01*
X144574430Y-80286033D01*
X144679900Y-80816268D01*
X144980254Y-81265779D01*
X145429765Y-81566133D01*
X145960000Y-81671603D01*
X146490235Y-81566133D01*
X146939746Y-81265779D01*
X147230000Y-80831384D01*
X147520254Y-81265779D01*
X147969765Y-81566133D01*
X148500000Y-81671603D01*
X149030235Y-81566133D01*
X149479746Y-81265779D01*
X149770000Y-80831384D01*
X150060254Y-81265779D01*
X150509765Y-81566133D01*
X151040000Y-81671603D01*
X151570235Y-81566133D01*
X152019746Y-81265779D01*
X152320100Y-80816268D01*
X152425570Y-80286033D01*
X152425570Y-79213967D01*
X152320100Y-78683732D01*
X152019746Y-78234221D01*
X151570235Y-77933867D01*
X151040000Y-77828397D01*
X150509765Y-77933867D01*
X150060254Y-78234221D01*
X149770000Y-78668616D01*
X149479746Y-78234221D01*
X149439800Y-78207530D01*
X149439800Y-76939800D01*
X155110722Y-76939800D01*
X158670922Y-80500000D01*
X146877529Y-92293393D01*
X146761065Y-92293291D01*
X146317465Y-92476582D01*
X145977775Y-92815680D01*
X145847537Y-93129329D01*
X145500000Y-93060200D01*
X139766601Y-93060200D01*
X139684320Y-92977775D01*
X139241041Y-92793710D01*
X138761065Y-92793291D01*
X138317465Y-92976582D01*
X137977775Y-93315680D01*
X137793710Y-93758959D01*
X137793607Y-93877315D01*
X137335461Y-94335461D01*
X137131738Y-94640354D01*
X137072065Y-94940349D01*
X136923559Y-95035910D01*
X136778569Y-95248110D01*
X136727560Y-95500000D01*
X120710000Y-95500000D01*
X120710000Y-83823694D01*
X149865226Y-83823694D01*
X150113538Y-84424655D01*
X150572927Y-84884846D01*
X151173453Y-85134206D01*
X151823694Y-85134774D01*
X152424655Y-84886462D01*
X152884846Y-84427073D01*
X153134206Y-83826547D01*
X153134774Y-83176306D01*
X152886462Y-82575345D01*
X152427073Y-82115154D01*
X151826547Y-81865794D01*
X151176306Y-81865226D01*
X150575345Y-82113538D01*
X150115154Y-82572927D01*
X149865794Y-83173453D01*
X149865226Y-83823694D01*
X120710000Y-83823694D01*
X120710000Y-76422815D01*
X121364630Y-76422815D01*
X121688980Y-77207800D01*
X122289041Y-77808909D01*
X123073459Y-78134628D01*
X123922815Y-78135370D01*
X124707800Y-77811020D01*
X125308909Y-77210959D01*
X125634628Y-76426541D01*
X125634691Y-76353501D01*
X133514691Y-76353501D01*
X133785868Y-77009800D01*
X134287559Y-77512367D01*
X134943384Y-77784689D01*
X135653501Y-77785309D01*
X136309800Y-77514132D01*
X136812367Y-77012441D01*
X137084689Y-76356616D01*
X137085309Y-75646499D01*
X136814132Y-74990200D01*
X136312441Y-74487633D01*
X135656616Y-74215311D01*
X134946499Y-74214691D01*
X134290200Y-74485868D01*
X133787633Y-74987559D01*
X133515311Y-75643384D01*
X133514691Y-76353501D01*
X125634691Y-76353501D01*
X125635370Y-75577185D01*
X125311020Y-74792200D01*
X124710959Y-74191091D01*
X123926541Y-73865372D01*
X123077185Y-73864630D01*
X122292200Y-74188980D01*
X121691091Y-74789041D01*
X121365372Y-75573459D01*
X121364630Y-76422815D01*
X120710000Y-76422815D01*
X120710000Y-73710000D01*
X175290000Y-73710000D01*
X175290000Y-118290000D01*
X175290000Y-118290000D01*
G37*
X175290000Y-118290000D02*
X120710000Y-118290000D01*
X120710000Y-115922815D01*
X121364630Y-115922815D01*
X121688980Y-116707800D01*
X122289041Y-117308909D01*
X123073459Y-117634628D01*
X123922815Y-117635370D01*
X124707800Y-117311020D01*
X125308909Y-116710959D01*
X125634628Y-115926541D01*
X125635154Y-115323795D01*
X130364716Y-115323795D01*
X130613106Y-115924943D01*
X131072637Y-116385278D01*
X131673352Y-116634716D01*
X132323795Y-116635284D01*
X132924943Y-116386894D01*
X133250164Y-116062241D01*
X133572637Y-116385278D01*
X134173352Y-116634716D01*
X134823795Y-116635284D01*
X135424943Y-116386894D01*
X135659715Y-116152532D01*
X136027073Y-116152532D01*
X136125736Y-116419387D01*
X136735461Y-116645908D01*
X137385460Y-116621856D01*
X137874264Y-116419387D01*
X137972927Y-116152532D01*
X137000000Y-115179605D01*
X136027073Y-116152532D01*
X135659715Y-116152532D01*
X135841752Y-115970813D01*
X135847468Y-115972927D01*
X136820395Y-115000000D01*
X137179605Y-115000000D01*
X138152532Y-115972927D01*
X138419387Y-115874264D01*
X138623893Y-115323795D01*
X144864716Y-115323795D01*
X145113106Y-115924943D01*
X145572637Y-116385278D01*
X146173352Y-116634716D01*
X146823795Y-116635284D01*
X147424943Y-116386894D01*
X147659715Y-116152532D01*
X148027073Y-116152532D01*
X148125736Y-116419387D01*
X148735461Y-116645908D01*
X149385460Y-116621856D01*
X149874264Y-116419387D01*
X149972927Y-116152532D01*
X149000000Y-115179605D01*
X148027073Y-116152532D01*
X147659715Y-116152532D01*
X147841752Y-115970813D01*
X147847468Y-115972927D01*
X148820395Y-115000000D01*
X149179605Y-115000000D01*
X150152532Y-115972927D01*
X150158722Y-115970639D01*
X150572637Y-116385278D01*
X151173352Y-116634716D01*
X151823795Y-116635284D01*
X152424943Y-116386894D01*
X152885278Y-115927363D01*
X152887166Y-115922815D01*
X170364630Y-115922815D01*
X170688980Y-116707800D01*
X171289041Y-117308909D01*
X172073459Y-117634628D01*
X172922815Y-117635370D01*
X173707800Y-117311020D01*
X174308909Y-116710959D01*
X174634628Y-115926541D01*
X174635370Y-115077185D01*
X174311020Y-114292200D01*
X173710959Y-113691091D01*
X172926541Y-113365372D01*
X172077185Y-113364630D01*
X171292200Y-113688980D01*
X170691091Y-114289041D01*
X170365372Y-115073459D01*
X170364630Y-115922815D01*
X152887166Y-115922815D01*
X153134716Y-115326648D01*
X153135284Y-114676205D01*
X152886894Y-114075057D01*
X152427363Y-113614722D01*
X151826648Y-113365284D01*
X151176205Y-113364716D01*
X150575057Y-113613106D01*
X150158248Y-114029187D01*
X150152532Y-114027073D01*
X149179605Y-115000000D01*
X148820395Y-115000000D01*
X147847468Y-114027073D01*
X147841278Y-114029361D01*
X147659703Y-113847468D01*
X148027073Y-113847468D01*
X149000000Y-114820395D01*
X149972927Y-113847468D01*
X149874264Y-113580613D01*
X149264539Y-113354092D01*
X148614540Y-113378144D01*
X148125736Y-113580613D01*
X148027073Y-113847468D01*
X147659703Y-113847468D01*
X147427363Y-113614722D01*
X146826648Y-113365284D01*
X146176205Y-113364716D01*
X145575057Y-113613106D01*
X145114722Y-114072637D01*
X144865284Y-114673352D01*
X144864716Y-115323795D01*
X138623893Y-115323795D01*
X138645908Y-115264539D01*
X138621856Y-114614540D01*
X138419387Y-114125736D01*
X138152532Y-114027073D01*
X137179605Y-115000000D01*
X136820395Y-115000000D01*
X135847468Y-114027073D01*
X135841278Y-114029361D01*
X135659703Y-113847468D01*
X136027073Y-113847468D01*
X137000000Y-114820395D01*
X137972927Y-113847468D01*
X137874264Y-113580613D01*
X137264539Y-113354092D01*
X136614540Y-113378144D01*
X136125736Y-113580613D01*
X136027073Y-113847468D01*
X135659703Y-113847468D01*
X135427363Y-113614722D01*
X134826648Y-113365284D01*
X134176205Y-113364716D01*
X134008721Y-113433919D01*
X132760000Y-112185198D01*
X132760000Y-112043599D01*
X137864699Y-112043599D01*
X138128281Y-112681515D01*
X138615918Y-113170004D01*
X139253373Y-113434699D01*
X139943599Y-113435301D01*
X140581515Y-113171719D01*
X141070004Y-112684082D01*
X141334699Y-112046627D01*
X141334701Y-112043599D01*
X142164699Y-112043599D01*
X142428281Y-112681515D01*
X142915918Y-113170004D01*
X143553373Y-113434699D01*
X144243599Y-113435301D01*
X144881515Y-113171719D01*
X145370004Y-112684082D01*
X145634699Y-112046627D01*
X145634701Y-112043599D01*
X152364699Y-112043599D01*
X152628281Y-112681515D01*
X153115918Y-113170004D01*
X153753373Y-113434699D01*
X154443599Y-113435301D01*
X155081515Y-113171719D01*
X155570004Y-112684082D01*
X155834699Y-112046627D01*
X155835154Y-111524000D01*
X163336560Y-111524000D01*
X163336560Y-113556000D01*
X163380838Y-113791317D01*
X163519910Y-114007441D01*
X163732110Y-114152431D01*
X163984000Y-114203440D01*
X166016000Y-114203440D01*
X166251317Y-114159162D01*
X166467441Y-114020090D01*
X166612431Y-113807890D01*
X166663440Y-113556000D01*
X166663440Y-111524000D01*
X166619162Y-111288683D01*
X166480090Y-111072559D01*
X166267890Y-110927569D01*
X166016000Y-110876560D01*
X163984000Y-110876560D01*
X163748683Y-110920838D01*
X163532559Y-111059910D01*
X163387569Y-111272110D01*
X163336560Y-111524000D01*
X155835154Y-111524000D01*
X155835301Y-111356401D01*
X155571719Y-110718485D01*
X155084082Y-110229996D01*
X154446627Y-109965301D01*
X153756401Y-109964699D01*
X153118485Y-110228281D01*
X152629996Y-110715918D01*
X152365301Y-111353373D01*
X152364699Y-112043599D01*
X145634701Y-112043599D01*
X145635301Y-111356401D01*
X145371719Y-110718485D01*
X144884082Y-110229996D01*
X144246627Y-109965301D01*
X143556401Y-109964699D01*
X142918485Y-110228281D01*
X142429996Y-110715918D01*
X142165301Y-111353373D01*
X142164699Y-112043599D01*
X141334701Y-112043599D01*
X141335301Y-111356401D01*
X141071719Y-110718485D01*
X140584082Y-110229996D01*
X139946627Y-109965301D01*
X139256401Y-109964699D01*
X138618485Y-110228281D01*
X138129996Y-110715918D01*
X137865301Y-111353373D01*
X137864699Y-112043599D01*
X132760000Y-112043599D01*
X132760000Y-99035750D01*
X136740000Y-99035750D01*
X136740000Y-99626309D01*
X136836673Y-99859698D01*
X137015301Y-100038327D01*
X137248690Y-100135000D01*
X137714250Y-100135000D01*
X137873000Y-99976250D01*
X137873000Y-98877000D01*
X138127000Y-98877000D01*
X138127000Y-99976250D01*
X138285750Y-100135000D01*
X138751310Y-100135000D01*
X138984699Y-100038327D01*
X139163327Y-99859698D01*
X139235620Y-99685167D01*
X140064838Y-99685167D01*
X140206883Y-100028943D01*
X140469673Y-100292192D01*
X140813201Y-100434838D01*
X140860077Y-100434879D01*
X141462599Y-101037401D01*
X141709161Y-101202148D01*
X142000000Y-101260000D01*
X142937537Y-101260000D01*
X142969673Y-101292192D01*
X143313201Y-101434838D01*
X143685167Y-101435162D01*
X144028943Y-101293117D01*
X144292192Y-101030327D01*
X144434838Y-100686799D01*
X144435162Y-100314833D01*
X144293117Y-99971057D01*
X144030327Y-99707808D01*
X143686799Y-99565162D01*
X143314833Y-99564838D01*
X142971057Y-99706883D01*
X142937882Y-99740000D01*
X142314802Y-99740000D01*
X141935122Y-99360320D01*
X141935162Y-99314833D01*
X141793117Y-98971057D01*
X141530327Y-98707808D01*
X141186799Y-98565162D01*
X140814833Y-98564838D01*
X140471057Y-98706883D01*
X140207808Y-98969673D01*
X140065162Y-99313201D01*
X140064838Y-99685167D01*
X139235620Y-99685167D01*
X139260000Y-99626309D01*
X139260000Y-99035750D01*
X139101250Y-98877000D01*
X138127000Y-98877000D01*
X137873000Y-98877000D01*
X136898750Y-98877000D01*
X136740000Y-99035750D01*
X132760000Y-99035750D01*
X132760000Y-98404242D01*
X133028943Y-98293117D01*
X133292192Y-98030327D01*
X133434838Y-97686799D01*
X133435162Y-97314833D01*
X133293117Y-96971057D01*
X133030327Y-96707808D01*
X132686799Y-96565162D01*
X132314833Y-96564838D01*
X131971057Y-96706883D01*
X131707808Y-96969673D01*
X131565162Y-97313201D01*
X131565121Y-97360077D01*
X131462599Y-97462599D01*
X131297852Y-97709161D01*
X131240000Y-98000000D01*
X131240000Y-112500000D01*
X131297852Y-112790839D01*
X131462599Y-113037401D01*
X131790013Y-113364815D01*
X131676205Y-113364716D01*
X131075057Y-113613106D01*
X130614722Y-114072637D01*
X130365284Y-114673352D01*
X130364716Y-115323795D01*
X125635154Y-115323795D01*
X125635370Y-115077185D01*
X125311020Y-114292200D01*
X124710959Y-113691091D01*
X123926541Y-113365372D01*
X123077185Y-113364630D01*
X122292200Y-113688980D01*
X121691091Y-114289041D01*
X121365372Y-115073459D01*
X121364630Y-115922815D01*
X120710000Y-115922815D01*
X120710000Y-112043599D01*
X127664699Y-112043599D01*
X127928281Y-112681515D01*
X128415918Y-113170004D01*
X129053373Y-113434699D01*
X129743599Y-113435301D01*
X130381515Y-113171719D01*
X130870004Y-112684082D01*
X131134699Y-112046627D01*
X131135301Y-111356401D01*
X130871719Y-110718485D01*
X130384082Y-110229996D01*
X129746627Y-109965301D01*
X129056401Y-109964699D01*
X128418485Y-110228281D01*
X127929996Y-110715918D01*
X127665301Y-111353373D01*
X127664699Y-112043599D01*
X120710000Y-112043599D01*
X120710000Y-95500000D01*
X136727560Y-95500000D01*
X136727560Y-97000000D01*
X136771838Y-97235317D01*
X136910910Y-97451441D01*
X136979006Y-97497969D01*
X136836673Y-97640302D01*
X136740000Y-97873691D01*
X136740000Y-98464250D01*
X136898750Y-98623000D01*
X137873000Y-98623000D01*
X137873000Y-98603000D01*
X138127000Y-98603000D01*
X138127000Y-98623000D01*
X139101250Y-98623000D01*
X139260000Y-98464250D01*
X139260000Y-97873691D01*
X139163327Y-97640302D01*
X139022090Y-97499064D01*
X139076441Y-97464090D01*
X139221431Y-97251890D01*
X139272440Y-97000000D01*
X139272440Y-95500000D01*
X139228162Y-95264683D01*
X139190830Y-95206667D01*
X139238935Y-95206709D01*
X139682535Y-95023418D01*
X139766299Y-94939800D01*
X145110722Y-94939800D01*
X146835461Y-96664539D01*
X147140354Y-96868262D01*
X147500000Y-96939800D01*
X148060200Y-96939800D01*
X148060200Y-97733399D01*
X147977775Y-97815680D01*
X147793710Y-98258959D01*
X147793291Y-98738935D01*
X147976582Y-99182535D01*
X148315680Y-99522225D01*
X148616079Y-99646961D01*
X148471057Y-99706883D01*
X148207808Y-99969673D01*
X148065162Y-100313201D01*
X148065121Y-100360077D01*
X145962599Y-102462599D01*
X145797852Y-102709161D01*
X145740000Y-103000000D01*
X145740000Y-106437537D01*
X145707808Y-106469673D01*
X145565162Y-106813201D01*
X145564838Y-107185167D01*
X145706883Y-107528943D01*
X145969673Y-107792192D01*
X146313201Y-107934838D01*
X146685167Y-107935162D01*
X146908347Y-107842946D01*
X163394017Y-107842946D01*
X163662812Y-108428379D01*
X164135182Y-108866385D01*
X164617056Y-109065975D01*
X164873000Y-108946836D01*
X164873000Y-107587000D01*
X165127000Y-107587000D01*
X165127000Y-108946836D01*
X165382944Y-109065975D01*
X165864818Y-108866385D01*
X166337188Y-108428379D01*
X166605983Y-107842946D01*
X166487367Y-107587000D01*
X165127000Y-107587000D01*
X164873000Y-107587000D01*
X163512633Y-107587000D01*
X163394017Y-107842946D01*
X146908347Y-107842946D01*
X147028943Y-107793117D01*
X147292192Y-107530327D01*
X147434838Y-107186799D01*
X147434933Y-107077054D01*
X163394017Y-107077054D01*
X163512633Y-107333000D01*
X164873000Y-107333000D01*
X164873000Y-105973164D01*
X165127000Y-105973164D01*
X165127000Y-107333000D01*
X166487367Y-107333000D01*
X166605983Y-107077054D01*
X166337188Y-106491621D01*
X165864818Y-106053615D01*
X165382944Y-105854025D01*
X165127000Y-105973164D01*
X164873000Y-105973164D01*
X164617056Y-105854025D01*
X164135182Y-106053615D01*
X163662812Y-106491621D01*
X163394017Y-107077054D01*
X147434933Y-107077054D01*
X147435162Y-106814833D01*
X147293117Y-106471057D01*
X147260000Y-106437882D01*
X147260000Y-103314802D01*
X149139680Y-101435122D01*
X149185167Y-101435162D01*
X149528943Y-101293117D01*
X149792192Y-101030327D01*
X149934838Y-100686799D01*
X149935070Y-100420000D01*
X156316655Y-100420000D01*
X156430729Y-100993489D01*
X156755585Y-101479670D01*
X157070366Y-101690000D01*
X156755585Y-101900330D01*
X156430729Y-102386511D01*
X156316655Y-102960000D01*
X156430729Y-103533489D01*
X156755585Y-104019670D01*
X156769913Y-104029243D01*
X156748683Y-104033238D01*
X156532559Y-104172310D01*
X156387569Y-104384510D01*
X156336560Y-104636400D01*
X156336560Y-106363600D01*
X156380838Y-106598917D01*
X156519910Y-106815041D01*
X156732110Y-106960031D01*
X156984000Y-107011040D01*
X159016000Y-107011040D01*
X159251317Y-106966762D01*
X159467441Y-106827690D01*
X159612431Y-106615490D01*
X159663440Y-106363600D01*
X159663440Y-104636400D01*
X159619162Y-104401083D01*
X159480090Y-104184959D01*
X159267890Y-104039969D01*
X159226561Y-104031600D01*
X159244415Y-104019670D01*
X159324510Y-103899800D01*
X160290000Y-103899800D01*
X160649646Y-103828262D01*
X160954539Y-103624539D01*
X161806638Y-102772440D01*
X162500000Y-102772440D01*
X162735317Y-102728162D01*
X162951441Y-102589090D01*
X162997969Y-102520994D01*
X163140302Y-102663327D01*
X163373691Y-102760000D01*
X163964250Y-102760000D01*
X164123000Y-102601250D01*
X164123000Y-101627000D01*
X164377000Y-101627000D01*
X164377000Y-102601250D01*
X164535750Y-102760000D01*
X165126309Y-102760000D01*
X165359698Y-102663327D01*
X165538327Y-102484699D01*
X165635000Y-102251310D01*
X165635000Y-101785750D01*
X165476250Y-101627000D01*
X164377000Y-101627000D01*
X164123000Y-101627000D01*
X164103000Y-101627000D01*
X164103000Y-101373000D01*
X164123000Y-101373000D01*
X164123000Y-100398750D01*
X164377000Y-100398750D01*
X164377000Y-101373000D01*
X165476250Y-101373000D01*
X165635000Y-101214250D01*
X165635000Y-100748690D01*
X165538327Y-100515301D01*
X165359698Y-100336673D01*
X165126309Y-100240000D01*
X164535750Y-100240000D01*
X164377000Y-100398750D01*
X164123000Y-100398750D01*
X163964250Y-100240000D01*
X163373691Y-100240000D01*
X163140302Y-100336673D01*
X162999064Y-100477910D01*
X162964090Y-100423559D01*
X162751890Y-100278569D01*
X162500000Y-100227560D01*
X161000000Y-100227560D01*
X160764683Y-100271838D01*
X160548559Y-100410910D01*
X160403569Y-100623110D01*
X160352560Y-100875000D01*
X160352560Y-101568362D01*
X159900722Y-102020200D01*
X159324510Y-102020200D01*
X159244415Y-101900330D01*
X158929634Y-101690000D01*
X159244415Y-101479670D01*
X159569271Y-100993489D01*
X159683345Y-100420000D01*
X159569271Y-99846511D01*
X159244415Y-99360330D01*
X158758234Y-99035474D01*
X158184745Y-98921400D01*
X157815255Y-98921400D01*
X157241766Y-99035474D01*
X156755585Y-99360330D01*
X156430729Y-99846511D01*
X156316655Y-100420000D01*
X149935070Y-100420000D01*
X149935162Y-100314833D01*
X149793117Y-99971057D01*
X149530327Y-99707808D01*
X149383665Y-99646908D01*
X149682535Y-99523418D01*
X150022225Y-99184320D01*
X150206290Y-98741041D01*
X150206709Y-98261065D01*
X150088288Y-97974462D01*
X158733822Y-97974462D01*
X158952613Y-98156219D01*
X159593708Y-98047549D01*
X160144417Y-97701815D01*
X160466352Y-97282261D01*
X160418341Y-97001904D01*
X159089803Y-96645924D01*
X158733822Y-97974462D01*
X150088288Y-97974462D01*
X150023418Y-97817465D01*
X149939800Y-97733701D01*
X149939800Y-96939800D01*
X150250000Y-96939800D01*
X150609646Y-96868262D01*
X150914539Y-96664539D01*
X151136084Y-96442994D01*
X157334162Y-96442994D01*
X157442832Y-97084089D01*
X157788566Y-97634798D01*
X158208120Y-97956733D01*
X158488477Y-97908722D01*
X158844457Y-96580184D01*
X158174159Y-96400578D01*
X159155543Y-96400578D01*
X160484081Y-96756559D01*
X160665838Y-96537768D01*
X160557168Y-95896673D01*
X160211434Y-95345964D01*
X159791880Y-95024029D01*
X159511523Y-95072040D01*
X159155543Y-96400578D01*
X158174159Y-96400578D01*
X157515919Y-96224203D01*
X157334162Y-96442994D01*
X151136084Y-96442994D01*
X151806638Y-95772440D01*
X152500000Y-95772440D01*
X152735317Y-95728162D01*
X152951441Y-95589090D01*
X152997969Y-95520994D01*
X153140302Y-95663327D01*
X153373691Y-95760000D01*
X153964250Y-95760000D01*
X154123000Y-95601250D01*
X154123000Y-94627000D01*
X154377000Y-94627000D01*
X154377000Y-95601250D01*
X154535750Y-95760000D01*
X155126309Y-95760000D01*
X155274780Y-95698501D01*
X157533648Y-95698501D01*
X157581659Y-95978858D01*
X158910197Y-96334838D01*
X159266178Y-95006300D01*
X159047387Y-94824543D01*
X158406292Y-94933213D01*
X157855583Y-95278947D01*
X157533648Y-95698501D01*
X155274780Y-95698501D01*
X155359698Y-95663327D01*
X155538327Y-95484699D01*
X155635000Y-95251310D01*
X155635000Y-94785750D01*
X155476250Y-94627000D01*
X154377000Y-94627000D01*
X154123000Y-94627000D01*
X154103000Y-94627000D01*
X154103000Y-94373000D01*
X154123000Y-94373000D01*
X154123000Y-93398750D01*
X154377000Y-93398750D01*
X154377000Y-94373000D01*
X155476250Y-94373000D01*
X155635000Y-94214250D01*
X155635000Y-93748690D01*
X155538327Y-93515301D01*
X155359698Y-93336673D01*
X155126309Y-93240000D01*
X154535750Y-93240000D01*
X154377000Y-93398750D01*
X154123000Y-93398750D01*
X153964250Y-93240000D01*
X153373691Y-93240000D01*
X153140302Y-93336673D01*
X152999064Y-93477910D01*
X152964090Y-93423559D01*
X152751890Y-93278569D01*
X152500000Y-93227560D01*
X151000000Y-93227560D01*
X150764683Y-93271838D01*
X150548559Y-93410910D01*
X150403569Y-93623110D01*
X150352560Y-93875000D01*
X150352560Y-94568362D01*
X149860722Y-95060200D01*
X147889278Y-95060200D01*
X147448993Y-94619915D01*
X147682535Y-94523418D01*
X148022225Y-94184320D01*
X148206290Y-93741041D01*
X148206393Y-93622685D01*
X159060200Y-82768878D01*
X159060200Y-91500000D01*
X159131738Y-91859646D01*
X159335461Y-92164539D01*
X164047482Y-96876560D01*
X163984000Y-96876560D01*
X163748683Y-96920838D01*
X163532559Y-97059910D01*
X163387569Y-97272110D01*
X163336560Y-97524000D01*
X163336560Y-99556000D01*
X163380838Y-99791317D01*
X163519910Y-100007441D01*
X163732110Y-100152431D01*
X163984000Y-100203440D01*
X166016000Y-100203440D01*
X166251317Y-100159162D01*
X166467441Y-100020090D01*
X166612431Y-99807890D01*
X166663440Y-99556000D01*
X166663440Y-97524000D01*
X166619162Y-97288683D01*
X166480090Y-97072559D01*
X166267890Y-96927569D01*
X166016000Y-96876560D01*
X165939800Y-96876560D01*
X165939800Y-96500000D01*
X165868262Y-96140354D01*
X165664539Y-95835461D01*
X164806752Y-94977674D01*
X164873000Y-94946836D01*
X164873000Y-93587000D01*
X165127000Y-93587000D01*
X165127000Y-94946836D01*
X165382944Y-95065975D01*
X165864818Y-94866385D01*
X166337188Y-94428379D01*
X166605983Y-93842946D01*
X166487367Y-93587000D01*
X165127000Y-93587000D01*
X164873000Y-93587000D01*
X163512633Y-93587000D01*
X163482056Y-93652978D01*
X162906132Y-93077054D01*
X163394017Y-93077054D01*
X163512633Y-93333000D01*
X164873000Y-93333000D01*
X164873000Y-91973164D01*
X165127000Y-91973164D01*
X165127000Y-93333000D01*
X166487367Y-93333000D01*
X166605983Y-93077054D01*
X166337188Y-92491621D01*
X165864818Y-92053615D01*
X165382944Y-91854025D01*
X165127000Y-91973164D01*
X164873000Y-91973164D01*
X164617056Y-91854025D01*
X164135182Y-92053615D01*
X163662812Y-92491621D01*
X163394017Y-93077054D01*
X162906132Y-93077054D01*
X160939800Y-91110722D01*
X160939800Y-80500000D01*
X160868262Y-80140354D01*
X160664539Y-79835461D01*
X157182579Y-76353501D01*
X158914691Y-76353501D01*
X159185868Y-77009800D01*
X159687559Y-77512367D01*
X160343384Y-77784689D01*
X161053501Y-77785309D01*
X161709800Y-77514132D01*
X162212367Y-77012441D01*
X162457200Y-76422815D01*
X170364630Y-76422815D01*
X170688980Y-77207800D01*
X171289041Y-77808909D01*
X172073459Y-78134628D01*
X172922815Y-78135370D01*
X173707800Y-77811020D01*
X174308909Y-77210959D01*
X174634628Y-76426541D01*
X174635370Y-75577185D01*
X174311020Y-74792200D01*
X173710959Y-74191091D01*
X172926541Y-73865372D01*
X172077185Y-73864630D01*
X171292200Y-74188980D01*
X170691091Y-74789041D01*
X170365372Y-75573459D01*
X170364630Y-76422815D01*
X162457200Y-76422815D01*
X162484689Y-76356616D01*
X162485309Y-75646499D01*
X162214132Y-74990200D01*
X161712441Y-74487633D01*
X161056616Y-74215311D01*
X160346499Y-74214691D01*
X159690200Y-74485868D01*
X159187633Y-74987559D01*
X158915311Y-75643384D01*
X158914691Y-76353501D01*
X157182579Y-76353501D01*
X156164539Y-75335461D01*
X155859646Y-75131738D01*
X155500000Y-75060200D01*
X149000000Y-75060200D01*
X148640354Y-75131738D01*
X148335461Y-75335461D01*
X147835461Y-75835461D01*
X147631738Y-76140354D01*
X147560200Y-76500000D01*
X147560200Y-78207530D01*
X147520254Y-78234221D01*
X147230000Y-78668616D01*
X146939746Y-78234221D01*
X146490235Y-77933867D01*
X145960000Y-77828397D01*
X145429765Y-77933867D01*
X144980254Y-78234221D01*
X144679900Y-78683732D01*
X144574430Y-79213967D01*
X144574430Y-80286033D01*
X144679900Y-80816268D01*
X144980254Y-81265779D01*
X145429765Y-81566133D01*
X145960000Y-81671603D01*
X146490235Y-81566133D01*
X146939746Y-81265779D01*
X147230000Y-80831384D01*
X147520254Y-81265779D01*
X147969765Y-81566133D01*
X148500000Y-81671603D01*
X149030235Y-81566133D01*
X149479746Y-81265779D01*
X149770000Y-80831384D01*
X150060254Y-81265779D01*
X150509765Y-81566133D01*
X151040000Y-81671603D01*
X151570235Y-81566133D01*
X152019746Y-81265779D01*
X152320100Y-80816268D01*
X152425570Y-80286033D01*
X152425570Y-79213967D01*
X152320100Y-78683732D01*
X152019746Y-78234221D01*
X151570235Y-77933867D01*
X151040000Y-77828397D01*
X150509765Y-77933867D01*
X150060254Y-78234221D01*
X149770000Y-78668616D01*
X149479746Y-78234221D01*
X149439800Y-78207530D01*
X149439800Y-76939800D01*
X155110722Y-76939800D01*
X158670922Y-80500000D01*
X146877529Y-92293393D01*
X146761065Y-92293291D01*
X146317465Y-92476582D01*
X145977775Y-92815680D01*
X145847537Y-93129329D01*
X145500000Y-93060200D01*
X139766601Y-93060200D01*
X139684320Y-92977775D01*
X139241041Y-92793710D01*
X138761065Y-92793291D01*
X138317465Y-92976582D01*
X137977775Y-93315680D01*
X137793710Y-93758959D01*
X137793607Y-93877315D01*
X137335461Y-94335461D01*
X137131738Y-94640354D01*
X137072065Y-94940349D01*
X136923559Y-95035910D01*
X136778569Y-95248110D01*
X136727560Y-95500000D01*
X120710000Y-95500000D01*
X120710000Y-83823694D01*
X149865226Y-83823694D01*
X150113538Y-84424655D01*
X150572927Y-84884846D01*
X151173453Y-85134206D01*
X151823694Y-85134774D01*
X152424655Y-84886462D01*
X152884846Y-84427073D01*
X153134206Y-83826547D01*
X153134774Y-83176306D01*
X152886462Y-82575345D01*
X152427073Y-82115154D01*
X151826547Y-81865794D01*
X151176306Y-81865226D01*
X150575345Y-82113538D01*
X150115154Y-82572927D01*
X149865794Y-83173453D01*
X149865226Y-83823694D01*
X120710000Y-83823694D01*
X120710000Y-76422815D01*
X121364630Y-76422815D01*
X121688980Y-77207800D01*
X122289041Y-77808909D01*
X123073459Y-78134628D01*
X123922815Y-78135370D01*
X124707800Y-77811020D01*
X125308909Y-77210959D01*
X125634628Y-76426541D01*
X125634691Y-76353501D01*
X133514691Y-76353501D01*
X133785868Y-77009800D01*
X134287559Y-77512367D01*
X134943384Y-77784689D01*
X135653501Y-77785309D01*
X136309800Y-77514132D01*
X136812367Y-77012441D01*
X137084689Y-76356616D01*
X137085309Y-75646499D01*
X136814132Y-74990200D01*
X136312441Y-74487633D01*
X135656616Y-74215311D01*
X134946499Y-74214691D01*
X134290200Y-74485868D01*
X133787633Y-74987559D01*
X133515311Y-75643384D01*
X133514691Y-76353501D01*
X125634691Y-76353501D01*
X125635370Y-75577185D01*
X125311020Y-74792200D01*
X124710959Y-74191091D01*
X123926541Y-73865372D01*
X123077185Y-73864630D01*
X122292200Y-74188980D01*
X121691091Y-74789041D01*
X121365372Y-75573459D01*
X121364630Y-76422815D01*
X120710000Y-76422815D01*
X120710000Y-73710000D01*
X175290000Y-73710000D01*
X175290000Y-118290000D01*
M02*
